# xmcd
#
# Track frame offsets:
#	180
#	17962
#	36318
#	53554
#	68491
#	87481
#	107042
#	125177
#	138045
#	153830
#	171525
#	188640
#	208602
#	225525
#	243406
#	260277
#	276858
#	294609
#
# Disc length: 4190 seconds
#
# Revision: 0
# Processed by: cddbd v1.5.2PL0 Copyright (c) Steve Scherf et al.
# Submitted via: EZCDAudioConverter 3.0.8.1
#
DISCID=02105c12
DTITLE=Maximum Freestyle
DYEAR=1900
DGENRE=Freestyle
TTITLE0=Angel - Change on Me
TTITLE1=Frankie Boy - Margarita
TTITLE2=Irene - Without You Love
TTITLE3=Frakie Boy - When We First Met
TTITLE4=Atilla - Want to Love
TTITLE5=Leticia - Why Do You Treat Me Badly
TTITLE6=E-Lusion - Use Your Love
TTITLE7=Tears On Edge - And The Music
TTITLE8=Sincere Emotion - Trust In Me
TTITLE9=Irene - Anythin´ 4 You
TTITLE10=Tolga - Don´t Know
TTITLE11=Frankie Boy - My Precious Love
TTITLE12=Roman - Now I Know
TTITLE13=Larry Dermer - Memories Of You
TTITLE14=Irene - Lose Control
TTITLE15=Holly Cole - Don´t Tell Me,You Love Me
TTITLE16=Ten Minutes - Your Toy
TTITLE17=Frankie Boy - Smille For Me
EXTD=
EXTT0=
EXTT1=
EXTT2=
EXTT3=
EXTT4=
EXTT5=
EXTT6=
EXTT7=
EXTT8=
EXTT9=
EXTT10=
EXTT11=
EXTT12=
EXTT13=
EXTT14=
EXTT15=
EXTT16=
EXTT17=
PLAYORDER=
